<svg version="1.2" xmlns="http://www.w3.org/2000/svg" viewBox="0 0 1104 1598" width="1104" height="1598">
	<title>logo (13)-svg</title>
	<style>
		.s0 { fill: #fff } 
		.s1 { fill: #ffaa00 } 
		.s2 { fill: #fff } 
	</style>
	<g id="Group_36367">
		<path id="Path_24982" fill-rule="evenodd" class="s0" d="m2.8 762.6v-744.1h1015.9l-332.9 529q-13.7-20.8-28.9-40.6-15.2-19.7-31.8-38.2-16.6-18.6-34.6-35.8-17.9-17.2-37.2-33.1l-0.3-0.2c-12-10.7-25-20.3-38.9-28.6-13.8-8.4-28.3-15.5-43.4-21.2-15.1-5.7-30.7-10-46.5-12.9-15.9-2.9-32-4.4-48.1-4.4-93.2 0-157.4 37.8-231.8 116.8 0 0-56.5 52.4-105.8 183.3q-6 15.8-11.2 31.8-5.2 16.1-9.7 32.4-4.4 16.2-8.1 32.7-3.7 16.5-6.7 33.1zm367.1 271.6q27.6-23.1 53.6-47.9 26.1-24.8 50.6-51.1 24.4-26.4 47.2-54.2 18.4-22.9 36.3-46.2 17.8-23.3 35-47.1 17.3-23.8 33.9-48 16.6-24.2 32.6-48.8c13.1 22.7 25.2 46 36.3 69.8 11.1 23.7 21.3 48 30.4 72.6 9.1 24.6 17.2 49.6 24.3 74.8 7 25.3 13 50.9 18 76.7 4.2 20.9 19.6 100.9 26.2 135.4h-571.2q12.2-2.7 24.1-6.7 11.9-4 23.3-9.2 11.4-5.3 22.1-11.7 10.8-6.3 20.9-13.8 28.9-21.4 56.4-44.6zm-263.7 69.7q6.8 3.7 13.9 6.8 7.2 3 14.5 5.4 7.4 2.4 15 4.1h-146.7v-166.1c14.2 60.5 44.7 111.4 90.1 141.8q6.4 4.3 13.2 8zm932.4-1085.4h65.4v1101.7h-299.9c5.8-15.1 10.5-30.5 14.2-46.2 3.7-15.7 6.3-31.6 7.8-47.6 1.5-16.1 1.9-32.2 1.2-48.3-0.7-16.1-2.6-32.1-5.5-48-18.1-102-66.7-257.5-104.7-329.5l-0.2-0.5zm-604 842.1c-125.8 127.6-270.3 153.1-346.8 59.5-76.5-93.5 5.1-264 5.1-264 54.4-107 133.9-177.5 229.1-189.2 108.5-13.5 216 52.2 300.6 168.4q-21.6 29.7-44.1 58.6-22.6 29-46.1 57.2-23.5 28.2-48 55.5-24.4 27.4-49.8 54z"/>
		<path id="Path_24983" class="s1" d="m968.9 154.4l78.5 91.1 14.2-24.2-64-115.7 46.8-79.5c2.2-4 2.7-8.6 1.6-13-1.2-4.4-4.1-8.1-8-10.4-3.9-2.3-8.6-3-13-1.9-4.4 1-8.2 3.8-10.6 7.6l-46.8 79.5h-132.1l-14.3 24.2 117.7 24.6-28.8 54.1-35.3 8.9-10.3 17.5 42.4 8.9 27.4 32.3 10.3-17.6-9.3-35.2c0 0 33.6-51.2 33.6-51.2z"/>
		<path id="Path_24984" fill-rule="evenodd" class="s0" d="m227.5 1394.1h-61.8l-11.7-27.1h-80.3l-11.7 27.1h-61.8l81.1-166.3h65.1zm-86.5-57l-27.1-65.8-27.3 65.8z"/>
		<path id="Path_24985" class="s0" d="m368.9 1269.5h-55.7v124.6h-62.2v-124.6h-55.4v-41.7h173.3z"/>
		<path id="Path_24986" class="s0" d="m575.6 1394.1h-62.2v-62.9h-68.7v62.8h-62.3v-166.2h62.3v60.5h68.7v-60.5h62.2z"/>
		<path id="Path_24987" class="s0" d="m733.5 1394.1h-134.2v-166.3h133.1v35.2h-70.9v29.2h64.9v35.1h-64.9v31.7h72z"/>
		<path id="Path_24988" class="s0" d="m957.6 1394.1h-53.1l-88.2-81.5v81.5h-61.4v-166.3h53.1l88.3 81.5v-81.5h61.3z"/>
		<path id="Path_24989" class="s0" d="m1103.9 1346.8q0.1 4.8-0.9 9.5-0.9 4.7-2.9 9.1-1.9 4.4-4.7 8.2-2.9 3.9-6.5 7.1-5.2 4.2-11.1 7.4-5.9 3.3-12.3 5.3-6.4 2.1-13.1 2.9-6.7 0.8-13.4 0.3-8 0.2-15.9-0.4-7.9-0.7-15.7-2.1-7.8-1.5-15.4-3.7-7.7-2.3-15-5.3v-45.5q5.3 3.8 11.2 6.8 5.8 3 12 5.1 6.2 2.1 12.7 3.4 6.4 1.2 12.9 1.5 17.9 0 17.9-11.6 0-6.6-17.3-15.2-4.3-2-8.4-4.1-4.1-2.1-8.1-4.5-4-2.3-7.9-4.9-3.9-2.5-7.7-5.2c-2.7-2.1-5.2-4.6-7.3-7.3-2.2-2.6-4-5.6-5.5-8.7-1.5-3.1-2.7-6.3-3.4-9.7-0.8-3.4-1.1-6.8-1.1-10.3q-0.1-4.6 0.8-9.2 0.9-4.5 2.7-8.8 1.8-4.3 4.5-8.1 2.6-3.8 5.9-7.1c3.3-3 7-5.7 10.8-8 3.9-2.3 7.9-4.2 12.2-5.6 4.2-1.5 8.6-2.5 13-3.1 4.5-0.6 9-0.8 13.5-0.5q7.5 0 15 1.1 7.5 1.1 14.7 3.4 7.2 2.3 13.9 5.7 6.8 3.4 12.9 7.8v44.3q-4.4-4.6-9.6-8.3-5.1-3.8-10.8-6.6-5.7-2.8-11.9-4.5-6.1-1.8-12.4-2.5-17.4 0-17.4 11.6 0 7.6 17.9 16.7 4.3 2 8.6 4.1 4.3 2.2 8.4 4.5 4.2 2.4 8.3 4.9 4.1 2.5 8 5.2c2.8 1.9 5.3 4.3 7.5 6.8 2.2 2.6 4.1 5.4 5.6 8.5 1.6 3 2.8 6.2 3.6 9.5 0.8 3.3 1.2 6.7 1.2 10.1z"/>
		<path id="Path_24990" class="s0" d="m117.7 1427.6h-7.4v70.2h9.8v-70.2z"/>
		<path id="Path_24991" class="s0" d="m83.2 1427.6h-7.4v53l-45.6-53h-7.7v70.2h9.8v-53l45.6 53h7.7v-70.2z"/>
		<path id="Path_24992" class="s0" d="m144.5 1427.6h-55.9v9.1h24.2v61.1h9.8v-61.1h24.3v-9.1z"/>
		<path id="Path_24993" class="s0" d="m187.7 1427.6h-37.7v70.2h40.9v-9.1h-31v-21.7h29.4v-9h-29.4v-21.3h30.2v-9.1z"/>
		<path id="Path_24994" fill-rule="evenodd" class="s0" d="m252.2 1497.8h-11.6l-12-19c-7.5-11.9-9.3-12.3-16-12.3h-6.3v31.3h-9.9v-70.2h19c22.1 0 23.8 14.8 23.8 19.3q0 2.6-0.7 5.1-0.7 2.5-2.1 4.7-1.4 2.2-3.4 3.9-1.9 1.7-4.3 2.7 0.9 1 1.7 1.9 0.9 1 1.7 2 0.8 1 1.6 2.1 0.7 1 1.4 2.1zm-23.2-50.8c0-8.5-8-10.3-14.6-10.3h-8.2v20.8h8.3c6.6 0 14.5-1.9 14.5-10.5z"/>
		<path id="Path_24995" class="s0" d="m311.3 1427.6h-7.4v53l-45.5-53h-7.8v70.2h9.8v-53l45.6 53h7.7v-70.2z"/>
		<path id="Path_24996" fill-rule="evenodd" class="s0" d="m385.2 1497.8h-10.5l-10.2-22.6h-28.5l-10.2 22.6h-10.5l32.1-70.7h5.8zm-24.8-31.6l-10.2-22.5-10.1 22.5z"/>
		<path id="Path_24997" class="s0" d="m426.3 1427.6h-55.9v9.1h24.2v61.1h9.9v-61.1h24.2v-9.1z"/>
		<path id="Path_24998" class="s0" d="m441.7 1427.6h-7.4v70.2h9.8v-70.2z"/>
		<path id="Path_24999" fill-rule="evenodd" class="s0" d="m499.4 1429.2c4.4 1.8 8.5 4.4 11.9 7.8 3.4 3.3 6.2 7.3 8 11.7 1.9 4.5 2.8 9.2 2.8 14 0 14.5-8.7 27.5-22 33.1-13.4 5.7-28.8 2.7-39.1-7.4-10.3-10.1-13.6-25.5-8.3-38.9 5.3-13.5 18.2-22.4 32.7-22.7 4.8-0.2 9.5 0.7 14 2.4zm4.8 52.2c5-5 7.8-11.7 7.8-18.7 0-7-2.8-13.7-7.8-18.7-4.9-4.9-11.6-7.7-18.6-7.7-7 0-13.7 2.8-18.7 7.7-5 5-7.7 11.7-7.7 18.7 0 7 2.7 13.7 7.7 18.7 5 4.9 11.7 7.7 18.7 7.7 7 0 13.7-2.8 18.6-7.7z"/>
		<path id="Path_25000" class="s0" d="m586.2 1427.6h-7.4v53l-45.5-53h-7.7v70.2h9.8v-53l45.6 53h7.6v-70.2z"/>
		<path id="Path_25001" fill-rule="evenodd" class="s0" d="m660.2 1497.8h-10.5l-10.2-22.6h-28.5c-1.1 2.5-10.2 22.6-10.2 22.6h-10.5l32-70.7h5.9zm-24.8-31.6c-2.1-4.5-7.6-16.5-10.3-22.5l-10.1 22.5z"/>
		<path id="Path_25002" class="s0" d="m669.3 1427.6h-7.4v70.2h41.8v-9.1h-32v-61.1z"/>
		<path id="Path_25003" fill-rule="evenodd" class="s0" d="m803.4 1497.8h-10.5l-10.2-22.6h-28.5c-1.1 2.5-10.2 22.6-10.2 22.6h-10.5l32-70.7h5.9zm-24.8-31.6c-2-4.5-7.5-16.5-10.2-22.5-2.7 5.9-8.1 18-10.1 22.5z"/>
		<path id="Path_25004" class="s0" d="m812.5 1427.6h-7.5v70.2h9.8v-70.2z"/>
		<path id="Path_25005" fill-rule="evenodd" class="s0" d="m880.6 1497.8h-11.6l-12-19c-7.5-11.9-9.3-12.3-16-12.3h-6.3v31.3h-9.8v-70.2h18.9c22.1 0 23.9 14.8 23.9 19.3q0 2.6-0.7 5.1-0.7 2.5-2.1 4.7-1.4 2.2-3.4 3.9-2 1.7-4.3 2.7 0.9 1 1.7 1.9 0.9 1 1.7 2 0.8 1 1.5 2.1 0.8 1 1.5 2.1zm-23.1-50.8c0-8.5-8-10.3-14.7-10.3h-8.1v20.8h8.3c6.6 0 14.5-1.9 14.5-10.5z"/>
		<path id="Path_25006" fill-rule="evenodd" class="s0" d="m922.8 1447.3c0 4.7-1.7 19.9-24 19.9h-9.9v30.6h-9.8v-70.2h20.2c14.7 0 23.5 7.4 23.5 19.7zm-10.1 0.1c0-6.9-4.8-10.7-13.5-10.7h-10.3v21.5h9.6c9.4 0 14.2-3.6 14.2-10.8z"/>
		<path id="Path_25007" fill-rule="evenodd" class="s0" d="m975.4 1429.2c4.5 1.8 8.5 4.4 11.9 7.8 3.5 3.3 6.2 7.3 8 11.7 1.9 4.5 2.8 9.2 2.8 14 0 14.5-8.7 27.5-22 33.1-13.3 5.7-28.7 2.7-39.1-7.4-10.3-10.1-13.6-25.5-8.3-38.9 5.4-13.5 18.2-22.4 32.7-22.7 4.8-0.2 9.6 0.7 14 2.4zm4.9 52.2c4.9-5 7.7-11.7 7.7-18.7 0-7-2.8-13.7-7.7-18.7-5-4.9-11.7-7.7-18.7-7.7-7 0-13.7 2.8-18.7 7.7-4.9 5-7.7 11.7-7.7 18.7 0 7 2.8 13.7 7.7 18.7 5 4.9 11.7 7.7 18.7 7.7 7 0 13.7-2.8 18.7-7.7z"/>
		<path id="Path_25008" fill-rule="evenodd" class="s0" d="m1057.4 1497.8h-11.6l-12-19c-7.5-11.9-9.3-12.3-16-12.3h-6.3v31.3h-9.8v-70.2h18.9c22.1 0 23.9 14.8 23.9 19.3q0 2.6-0.7 5.1-0.7 2.5-2.1 4.7-1.4 2.2-3.4 3.9-2 1.7-4.4 2.7 1 1 1.8 1.9 0.9 1 1.7 2 0.8 1 1.5 2.1 0.8 1 1.5 2.1zm-23.2-50.8c0-8.5-8-10.3-14.7-10.3h-8.1v20.8h8.3c6.6 0 14.5-1.9 14.5-10.5z"/>
		<path id="Path_25009" class="s0" d="m1101.6 1427.6h-56v9.1h24.3v61.1h9.8v-61.1h24.3v-9.1z"/>
		<path id="Path_25010" class="s2" d="m2.9 1596.8v-65.3h35.6v4.2h-30.6v26.1h29.8v4.2h-29.8v26.6h31.3v4.2z"/>
		<path id="Path_25011" class="s2" d="m56.6 1596.8v-65.3h5v61.1h32.3v4.2z"/>
		<path id="Path_25012" class="s2" d="m104.9 1596.8v-65.3h35.6v4.2h-30.5v26.1h29.7v4.2h-29.8v26.6h31.3v4.2z"/>
		<path id="Path_25013" class="s2" d="m161.3 1535.7v24.8h25.8v4.2h-25.8v32.1h-5.1v-65.3h33.7v4.2z"/>
		<path id="Path_25014" class="s2" d="m225.3 1535.7v61.1h-5.1v-61.1h-24.5v-4.2h54.1v4.2z"/>
		<path id="Path_25015" class="s2" d="m309.8 1596.8v-31h-43.6v31h-5.1v-65.3h5.1v30.1h43.6v-30.1h5v65.3z"/>
		<path id="Path_25016" class="s2" d="m333.4 1596.8v-65.3h35.6v4.2h-30.5v26.1h29.7v4.2h-29.7v26.6h31.3v4.2z"/>
		<path id="Path_25017" fill-rule="evenodd" class="s2" d="m429.6 1596.9l-11.4-18c-7.8-12.3-10.3-13.4-18.2-13.4h-8.8v31.4h-5.1v-65.4h16.8c16 0 21.6 8.1 21.6 16.9 0 1.8-0.3 3.6-0.8 5.3-0.6 1.7-1.5 3.3-2.6 4.8-1.1 1.4-2.5 2.6-4 3.6-1.6 1-3.2 1.7-5 2.1q1.3 1 2.6 2.1 1.2 1.2 2.3 2.4 1.1 1.3 2.1 2.7 0.9 1.3 1.7 2.8l14.8 22.6zm-27.8-61.2h-10.6v25.6h10.8c11.5 0 17-5 17-12.8 0-7.4-5.2-12.8-17.2-12.8z"/>
		<path id="Rectangle_151697" class="s2" d="m444.3 1531.5h5v65.3h-5z"/>
		<path id="Path_25018" fill-rule="evenodd" class="s2" d="m530 1577.3c-1.8 4.1-4.4 7.8-7.6 10.9-3.2 3.2-7 5.6-11.2 7.2-4.2 1.7-8.7 2.4-13.1 2.3-14.1 0-26.7-8.6-32-21.7-5.2-13-2.1-27.9 8-37.7 10.1-9.8 25.1-12.5 38-6.8 12.9 5.6 21 18.5 20.6 32.6 0 4.6-0.9 9-2.7 13.2zm-4.8-24.3c-1.5-3.6-3.6-6.8-6.3-9.5-2.7-2.7-5.9-4.8-9.5-6.2-3.5-1.4-7.3-2.1-11.1-2-11.8-0.1-22.5 7-27 17.9-4.5 11-2 23.5 6.4 31.8 8.4 8.4 20.9 10.8 31.8 6.2 10.9-4.6 17.9-15.3 17.8-27.1 0-3.8-0.7-7.6-2.1-11.1z"/>
		<path id="Path_25019" class="s2" d="m557.7 1597.7q-2.2-0.1-4.5-0.5-2.2-0.4-4.3-1.1-2.2-0.7-4.2-1.8-2-1-3.8-2.3v-6q1.7 1.5 3.6 2.7 1.9 1.3 4 2.2 2.1 0.9 4.4 1.4 2.2 0.5 4.5 0.7c1.7 0 3.5-0.2 5.2-0.9 1.6-0.6 3.1-1.5 4.4-2.7 1.3-1.3 2.3-2.7 3-4.3 0.8-1.6 1.1-3.4 1.2-5.2 0-18.5-31.2-10.4-31.2-32 0.1-2.3 0.7-4.7 1.7-6.8 1-2.2 2.4-4.1 4.1-5.7 1.8-1.6 3.8-2.9 6.1-3.7 2.2-0.8 4.5-1.2 6.9-1.1q2 0 4 0.3 1.9 0.3 3.8 0.8 2 0.5 3.8 1.3 1.8 0.7 3.5 1.7v5.6q-1.6-1.2-3.3-2-1.8-0.9-3.6-1.6-1.9-0.6-3.8-1-1.9-0.3-3.9-0.4c-1.7-0.1-3.5 0.1-5.1 0.7-1.6 0.5-3.1 1.4-4.4 2.6-1.3 1.2-2.4 2.6-3.1 4.1-0.7 1.6-1.1 3.3-1.2 5.1 0 17.4 31.1 9 31.1 31.9 0 2.5-0.5 4.9-1.5 7.1-1 2.2-2.4 4.2-4.2 5.9-1.8 1.7-3.8 3-6.1 3.8-2.3 0.9-4.7 1.3-7.1 1.2z"/>
		<path id="Path_25020" class="s2" d="m648.2 1597.5h-1.4l-27.5-66.1h5.1l23.1 55.3 23-55.3h5.1z"/>
		<path id="Path_25021" class="s2" d="m686.9 1596.8v-65.3h35.6v4.2h-30.5v26.1h29.7v4.2h-29.7v26.6h31.2v4.2z"/>
		<path id="Path_25022" class="s2" d="m791.6 1596.8l-49.6-57.1v57.1h-5.1v-65.3h4.3l49.5 57.1v-57.1h5.1v65.3z"/>
		<path id="Rectangle_151698" class="s2" d="m814.1 1531.5h5.1v65.3h-5.1z"/>
		<path id="Path_25023" class="s2" d="m835.1 1596.8l-0.5-1.5 49-59.6h-46.8v-4.2h54.6l0.5 1.8-49 59.3h49.4v4.2z"/>
		<path id="Path_25024" class="s2" d="m905.6 1596.8v-65.3h35.6v4.2h-30.6v26.1h29.8v4.2h-29.8v26.6h31.3v4.2z"/>
		<path id="Path_25025" class="s2" d="m958.4 1596.8v-65.3h5v61.1h32.3v4.2z"/>
		<path id="Path_25026" fill-rule="evenodd" class="s2" d="m1057.3 1577.1c-1.7 4.2-4.3 7.9-7.5 11-3.3 3.1-7.1 5.6-11.3 7.2-4.1 1.6-8.6 2.4-13.1 2.3-14.1 0-26.7-8.6-32-21.7-5.2-13-2-28 8.1-37.8 10.1-9.7 25.1-12.4 38-6.7 12.9 5.7 21 18.6 20.6 32.7-0.1 4.5-1 8.9-2.8 13zm-4.8-24.1c-1.5-3.6-3.6-6.8-6.3-9.5-2.7-2.7-5.9-4.8-9.5-6.2-3.5-1.4-7.3-2.1-11.1-2-11.8-0.1-22.5 7-27 17.9-4.5 10.9-2 23.5 6.4 31.8 8.4 8.3 20.9 10.8 31.8 6.2 10.9-4.6 17.9-15.3 17.8-27.1 0-3.8-0.7-7.6-2.1-11.1z"/>
		<path id="Path_25027" class="s2" d="m1085.1 1597.7q-2.3-0.1-4.5-0.5-2.2-0.4-4.4-1.1-2.1-0.7-4.1-1.8-2-1-3.8-2.3v-6q1.6 1.5 3.6 2.7 1.9 1.3 4 2.2 2.1 0.9 4.3 1.4 2.2 0.5 4.5 0.7c1.8 0 3.6-0.2 5.2-0.9 1.7-0.6 3.2-1.5 4.5-2.7 1.3-1.2 2.3-2.7 3-4.3 0.7-1.6 1.1-3.4 1.1-5.2 0-18.5-31.1-10.4-31.1-32 0.1-2.3 0.7-4.7 1.7-6.8 0.9-2.2 2.4-4.1 4.1-5.7 1.7-1.6 3.8-2.9 6-3.7 2.2-0.8 4.6-1.2 7-1.1q2 0 3.9 0.3 2 0.3 3.9 0.8 1.9 0.5 3.7 1.3 1.9 0.7 3.6 1.7v5.6q-1.6-1.2-3.4-2-1.7-0.9-3.6-1.6-1.8-0.6-3.7-1-2-0.3-3.9-0.4c-1.8-0.1-3.5 0.1-5.1 0.7-1.7 0.5-3.2 1.4-4.5 2.6-1.3 1.2-2.3 2.6-3 4.1-0.8 1.6-1.2 3.3-1.2 5.1 0 17.4 31.1 9 31.1 31.9-0.1 2.5-0.6 4.9-1.6 7.1-1 2.2-2.4 4.2-4.1 5.9-1.8 1.7-3.9 3-6.1 3.8-2.3 0.9-4.7 1.3-7.1 1.2z"/>
	</g>
</svg>